<?xml version="1.0" standalone="no"?>
<!DOCTYPE svg PUBLIC "-//W3C//DTD SVG 20010904//EN"
 "http://www.w3.org/TR/2001/REC-SVG-20010904/DTD/svg10.dtd">
<svg version="1.0" xmlns="http://www.w3.org/2000/svg"
 width="500.000000pt" height="500.000000pt" viewBox="0 0 500.000000 500.000000"
 preserveAspectRatio="xMidYMid meet">

<g transform="translate(0.000000,500.000000) scale(0.100000,-0.100000)"
fill="#000000" stroke="none">
<path d="M2326 3650 c-85 -14 -197 -47 -286 -85 -84 -36 -91 -40 -215 -121
-213 -140 -382 -391 -456 -679 -20 -78 -24 -114 -24 -265 0 -196 16 -278 82
-440 38 -93 51 -116 129 -235 125 -189 347 -351 591 -430 147 -48 219 -55 583
-55 l338 0 64 113 c36 61 99 171 141 244 43 73 77 134 77 137 0 2 -213 6 -472
9 -511 4 -533 6 -649 62 -131 62 -262 193 -324 324 -76 159 -76 383 0 542 60
128 192 262 315 321 154 73 334 82 499 25 77 -27 203 -110 256 -168 48 -53
123 -168 131 -201 l6 -28 -331 0 c-277 0 -338 -3 -369 -16 -176 -73 -176 -335
0 -408 32 -14 117 -16 632 -16 l596 0 7 28 c5 15 8 104 8 197 -1 145 -4 183
-24 260 -74 288 -243 538 -456 679 -124 81 -131 85 -218 122 -146 63 -253 85
-422 89 -82 2 -176 0 -209 -5z"/>
</g>
</svg>
